inDegrees=no
num_controls=7
num_derivatives=13
num_iterations=122
num_multipliers=7
num_parameters=0
num_slacks=7
num_states=26
objective=0.446505
objective_accelerations=0.056216
objective_balance=0.003301
objective_effort=0.022097
objective_height=0.359367
objective_ligament=0.005525
solver_duration=1767.679146
status=Solve_Succeeded
success=true
DataType=double
version=3
OpenSimVersion=4.5
endheader
time	/jointset/ground_pelvis/pelvis_tilt/value	/jointset/ground_pelvis/pelvis_tx/value	/jointset/ground_pelvis/pelvis_ty/value	/jointset/hip_l/hip_flexion_l/value	/jointset/hip_l/hip_adduction_l/value	/jointset/hip_l/hip_rotation_l/value	/jointset/back/lumbar_extension/value	/jointset/patellofemoral_l/patellar_flexion_l/value	/jointset/knee_l/knee_flexion_l/value	/jointset/knee_l/knee_adduction_l/value	/jointset/knee_l/knee_rotation_l/value	/jointset/ankle_l/ankle_angle_l/value	/jointset/subtalar_l/subtalar_angle_l/value	/jointset/ground_pelvis/pelvis_tilt/speed	/jointset/ground_pelvis/pelvis_tx/speed	/jointset/ground_pelvis/pelvis_ty/speed	/jointset/hip_l/hip_flexion_l/speed	/jointset/hip_l/hip_adduction_l/speed	/jointset/hip_l/hip_rotation_l/speed	/jointset/back/lumbar_extension/speed	/jointset/patellofemoral_l/patellar_flexion_l/speed	/jointset/knee_l/knee_flexion_l/speed	/jointset/knee_l/knee_adduction_l/speed	/jointset/knee_l/knee_rotation_l/speed	/jointset/ankle_l/ankle_angle_l/speed	/jointset/subtalar_l/subtalar_angle_l/speed	/forceset/tau_hip_flexion_l	/forceset/tau_hip_adduction_l	/forceset/tau_hip_rotation_l	/forceset/tau_knee_flexion_l	/forceset/tau_ankle_angle_l	/forceset/tau_subtalar_angle_l	/forceset/tau_lumbar_extension	lambda_cid13_p0	lambda_cid13_p1	lambda_cid13_p2	lambda_cid13_p3	lambda_cid13_p4	lambda_cid13_p5	lambda_cid14_p0	/jointset/ground_pelvis/pelvis_tilt/accel	/jointset/ground_pelvis/pelvis_tx/accel	/jointset/ground_pelvis/pelvis_ty/accel	/jointset/hip_l/hip_flexion_l/accel	/jointset/hip_l/hip_adduction_l/accel	/jointset/hip_l/hip_rotation_l/accel	/jointset/back/lumbar_extension/accel	/jointset/patellofemoral_l/patellar_flexion_l/accel	/jointset/knee_l/knee_flexion_l/accel	/jointset/knee_l/knee_adduction_l/accel	/jointset/knee_l/knee_rotation_l/accel	/jointset/ankle_l/ankle_angle_l/accel	/jointset/subtalar_l/subtalar_angle_l/accel	gamma_cid13_p0	gamma_cid13_p1	gamma_cid13_p2	gamma_cid13_p3	gamma_cid13_p4	gamma_cid13_p5	gamma_cid14_p0
1.5	-0.3527185086653296	-0.01511202805697912	0.7667078635047472	1.0718847174927	-0.4352668831452297	-0.2160555633256672	-0.2231436368329973	0.7967365272955285	0.7967365272955758	-0.1327291954397736	-0.1458167966886513	0.1383729329077767	-0.01385183684358567	0.63667512107989	0.2591447111078168	0.5143689986114721	-2.371569906668192	0.2138004151832485	-0.7129057227754367	0.3219983672151337	-1.99930829806524	-1.999308298065259	-0.1242947098328191	0.1339494128658663	-0.4273361240493098	0.02519573339280615	-0.1682643813529028	0.03076171230983113	-0.008170105442256766	-0.2028883340903521	0.03353202298241391	0.04199863744232966	0.1640885089253919	-21.37082451932596	-17.60150229433352	6.015039239832615	-6.382983113849225	-520.8359098117892	-62.00601024770005	-25.33743902613668	0.6414045948506378	0.6614163981692487	-0.5060156625553446	-1.250610313107381	0.6974122656391494	-0.1779811609837367	1.432088412573282	-1.29409587293684	-1.29409587293686	0.1200503848919806	0.2167933111807503	-0.4873212321043505	0.5090332346011696	5.053344538811041e-07	5.100505870162461e-07	-2.881579045558272e-06	-1.006087382419574e-07	7.118821218696578e-07	9.186110194925143e-08	4.590184848202218e-07
1.51	-0.3463197694897404	-0.01248784145511532	0.7718252030838796	1.048108350701038	-0.4330954461085392	-0.2231921913007013	-0.2198532979575288	0.7766811233680297	0.776681123368168	-0.1339690727799317	-0.1444676976538103	0.1340753752947544	-0.01357616852679115	0.642982083886223	0.2656510223727721	0.5089876787962165	-2.383360450469825	0.2204630171737277	-0.7142929803420338	0.3360281905300264	-2.011488337148832	-2.01148833714884	-0.1236949273695874	0.1358736877678546	-0.4321105629534363	0.02993613796316641	-0.162690583604459	0.03022530863422494	-0.007803958670593887	-0.1995449447616695	0.0331187880455406	0.04120356099953941	0.1594914052890835	-21.30081044527206	-17.26851391954935	5.962013292996815	-6.045655043322992	-516.9643854384914	-62.02100912343551	-26.2415276198736	0.6117667994217905	0.6390300080400468	-0.5707674760215478	-1.091799035728616	0.6471331457713059	-0.09972621519201555	1.382246688679363	-1.137409909030017	-1.137409909028283	0.02796250558677069	0.1804131656415845	-0.4627425470810108	0.4562587329418669	4.253013193553761e-07	9.711281987346195e-07	-1.978560796028677e-06	6.331201027022295e-08	5.998516858354683e-07	1.97212981285224e-07	4.0200151689323e-07
1.52	-0.3398606757509062	-0.009799833437125682	0.7768854139978574	1.024224373946953	-0.4308580932559392	-0.2303388174835434	-0.2164238973693647	0.756512428653101	0.7565124286533346	-0.1352033482297402	-0.143099322152771	0.1297320258271877	-0.0132531532313552	0.6487460337284389	0.2719089943329851	0.502943265580533	-2.393091899152953	0.2269835783649689	-0.7149053643364046	0.3498107097542016	-2.02196645555081	-2.021966455550806	-0.1231743317644358	0.137804706107191	-0.4364944949581314	0.03466512912106301	-0.1571167858560275	0.02968890495860887	-0.007437811898863221	-0.1962015554329924	0.03270555310866569	0.04040848455673756	0.1548943016527673	-21.2340043091054	-16.93898257518887	5.914130016910828	-5.741375643721382	-513.1583370787208	-62.08421493877627	-27.14544981257779	0.5328020020272165	0.61174853722078	-0.6386343426409162	-0.8387912894064039	0.6690041057915509	-0.02300644653846781	1.382627594429822	-0.9537117366140734	-0.9537117366140562	0.1042130132759788	0.218141998650394	-0.4092198522180917	0.5067505521084366	3.950672423013737e-07	1.28840969279178e-06	-1.517338704140367e-06	1.588180163333989e-07	5.66501264442618e-07	2.85771363524576e-07	3.816077483729767e-07
1.53	-0.3333466633272228	-0.007050497894825892	0.7818819605094448	1.000253161486211	-0.428556441840894	-0.237488402277886	-0.2128583852166132	0.7362474632984005	0.7362474632984644	-0.1364327408613965	-0.1417121819014831	0.1253468370972619	-0.01288308724107388	0.653948361002205	0.2779140230093167	0.496260629852461	-2.400789575952909	0.2333166575429009	-0.7149151727617817	0.3632214596228843	-2.030723442390157	-2.030723442390113	-0.1226957097774917	0.1396027785704042	-0.4404631778132732	0.03934897444990632	-0.1509699274437131	0.02838451339739026	-0.007140240229139685	-0.1938479242409127	0.03348556295391095	0.03953420767967914	0.1498389251235289	-20.79462529054653	-16.63932823407999	5.869911085468869	-5.67157855184541	-509.4309774238274	-62.23580649430022	-28.049409895057	0.497746814628606	0.588305134710662	-0.6987604908991371	-0.6810818711000843	0.6109545588765529	0.02487096528114554	1.309759507121128	-0.7912982157443855	-0.7912982157385305	0.02115297307864416	0.1572184410036995	-0.3786301162100145	0.4492693886242129	4.177446638110793e-07	1.452907811833902e-06	-1.525525029745918e-06	1.816333585445084e-07	6.167483586061898e-07	3.564866550987688e-07	4.001261292223825e-07
1.54	-0.3267838678858834	-0.004242427045388526	0.7868085442031498	0.9762158070583103	-0.4261923606870514	-0.2446351173553217	-0.2091608734003676	0.7159040068636766	0.7159040068635713	-0.137657054036846	-0.1403077452113955	0.120924374015975	-0.0124661692244336	0.6585026372590581	0.2836560557605003	0.4889507020040473	-2.406320292585261	0.2394695261241347	-0.71433142095442	0.3762106424529109	-2.037664671555479	-2.037664671555397	-0.1221584405235464	0.1412639938674933	-0.4439493652303262	0.04403553439282708	-0.1448230690314055	0.02708012183616513	-0.006842668559396703	-0.1914942930488345	0.03426557279915522	0.03865993080261236	0.144783548594287	-20.35599176744489	-16.34287691358209	5.830011546555856	-5.640718992737687	-505.7322279556176	-62.43486250730798	-28.9542863874038	0.4031917986446653	0.559149352191184	-0.7640927667092565	-0.4053992558858203	0.6329619864519277	0.09570560000927464	1.298314186698623	-0.5905602018092684	-0.5905602018092303	0.1159424666762109	0.1907705654255931	-0.3127207646003456	0.5072934749239235	4.18113757904299e-07	1.569213972402564e-06	-1.468155071374183e-06	2.076514924441509e-07	6.287073536241826e-07	4.088604310992305e-07	4.036009217411486e-07
1.55	-0.320178759483854	-0.001378375050960883	0.7916589627907908	0.9521340675542769	-0.4237676442224452	-0.2517733065826756	-0.2053356169354364	0.6955003314711418	0.6955003314711807	-0.1388754457510737	-0.1388874943499747	0.1164694596861174	-0.01200234166844698	0.6624149067054234	0.2890971795302312	0.4810366414737034	-2.409664687081852	0.2454356802920414	-0.7131990949454636	0.3887600837824436	-2.042763998799156	-2.042763998799018	-0.1215245124251909	0.1427720758462509	-0.4469595066846446	0.04871872969209026	-0.139022704151432	0.02598332841001542	-0.006515309959256726	-0.1886982348250284	0.0342102514332572	0.03766357842669244	0.1399521252458603	-20.2067717400654	-15.94081586204228	5.771082941473028	-5.276074521474016	-502.2782299549569	-62.49111310567672	-29.86135130468623	0.3696264428666574	0.5280701230047377	-0.8194030662463965	-0.244511524561823	0.5726778734866099	0.1384454531253218	1.221174093471195	-0.4237341716079536	-0.4237341715996418	0.03664578320006078	0.1284233909069264	-0.284006608975246	0.4470269616588655	3.927797791046127e-07	1.629994615599633e-06	-1.335252872767754e-06	2.373597993762333e-07	5.965517996266197e-07	4.401015913299598e-07	3.897428842267875e-07
1.56	-0.3135376520023113	0.00153838342789221	0.7964273726991186	0.9280297737096764	-0.4212844190678526	-0.2588968826795853	-0.2013872830597314	0.6750548397689783	0.675054839769161	-0.1400875926239601	-0.1374526433934052	0.1119866747870912	-0.01149204327862132	0.6657024531611517	0.2941973526455902	0.4725489661413857	-2.41083116069909	0.2511712641210106	-0.7114087948650468	0.4008261246075983	-2.046027933481274	-2.04602793348108	-0.1209094722554411	0.1441840128972505	-0.4495234790640694	0.05332970116060765	-0.1332223392714635	0.0248865349838619	-0.0061879513591125	-0.1859021766012234	0.03415493006735833	0.03666722605076676	0.135120701897431	-20.06155625382989	-15.54215816308153	5.717386273546879	-4.938966630357635	-498.8956350400586	-62.59735770536182	-30.75987696097461	0.2782472005173012	0.4909592213167829	-0.8788157271040103	0.03018491998462979	0.5868479186644293	0.227300414301368	1.201634085823023	-0.2234816894974436	-0.2234816894974447	0.1121648809550391	0.1715415798739817	-0.2234869496216665	0.492848708774762	3.60412939719154e-07	1.743150627873762e-06	-1.138874120736389e-06	2.822249636093368e-07	5.509126330864146e-07	4.646355143680522e-07	3.747110989269625e-07
1.57	-0.3068669383407456	0.00450442966613088	0.8011081201908088	0.9039248570445844	-0.4187449459769494	-0.2660002189718634	-0.1973207374694242	0.6545861357017736	0.6545861357017603	-0.1412929471262226	-0.136004814797444	0.1074806836946263	-0.01093579542955614	0.6683252968130046	0.2989529280447963	0.4635148354359787	-2.409784643965618	0.2566801745472149	-0.709155232936684	0.4123920430648174	-2.047399625627466	-2.047399625627381	-0.1201631986106662	0.1453652140547617	-0.4515901496966246	0.05790983061953115	-0.1272318448107761	0.02340911195407881	-0.005928474176391184	-0.1836529243394272	0.03481381980398281	0.03553838915218603	0.1301516541402408	-19.70741264420101	-15.11968504780713	5.656626024858211	-4.734871792759838	-495.7606947348676	-62.66692195868148	-31.63881241697436	0.2370362840825955	0.4590882107868625	-0.9284757688179774	0.1969990035054847	0.5262633345705211	0.2401790620630085	1.120428167344841	-0.0470945699605219	-0.0470945699768075	0.05589798399766897	0.08874118551505961	-0.1854995600970867	0.4388486585578796	3.192550246014799e-07	1.921775851494214e-06	-8.63149676923857e-07	3.460361994687168e-07	4.88418950867907e-07	4.807853909153484e-07	3.582121288953079e-07
1.58	-0.3001734495753461	0.007516277960674477	0.8056959735701332	0.8798414283375243	-0.4161517136357879	-0.2730778606488677	-0.1931412612062097	0.6341130983945548	0.6341130983943377	-0.1424908310164968	-0.1345457078295305	0.1029565774078312	-0.01033409556708023	0.6702574739273838	0.3033577639065756	0.4539701436682165	-2.40653356909307	0.2619231141723021	-0.7062698718099489	0.4234122591889739	-2.046894581484878	-2.046894581484901	-0.119415349855532	0.1464396872852861	-0.4531465179301655	0.06242010384272443	-0.1212413503500896	0.02193168892429456	-0.005668996993739481	-0.1814036720776239	0.03547270954060802	0.03440955225360526	0.1251826063830505	-19.36159582367011	-14.698839985947	5.599651041657249	-4.536214805146288	-492.7545811704715	-62.7888468315138	-32.4929988376893	0.1401138930226	0.4208113138314139	-0.9809279395750268	0.4710965477996681	0.5336537584409954	0.3536602539758509	1.092493619210509	0.1518655682585042	0.1518655682585056	0.1124799030268845	0.1501959944766074	-0.1214264698188568	0.4788774616287088	2.819910261774735e-07	2.041367785027381e-06	-6.466855920243386e-07	3.912918508225849e-07	4.356693705073361e-07	4.899865975542911e-07	3.412328466458069e-07
